<svg width="40" height="40" viewBox="0 0 40 40" fill="none" xmlns="http://www.w3.org/2000/svg">
<path d="M8.33331 21.2659C8.33331 19.003 8.33331 17.8715 8.79075 16.877C9.24818 15.8824 10.1073 15.146 11.8254 13.6733L13.4921 12.2448C16.5976 9.58289 18.1504 8.25195 20 8.25195C21.8496 8.25195 23.4024 9.58289 26.5079 12.2448L28.1746 13.6733C29.8927 15.146 30.7518 15.8824 31.2092 16.877C31.6666 17.8715 31.6666 19.003 31.6666 21.2659V28.3332C31.6666 31.4759 31.6666 33.0473 30.6903 34.0236C29.714 34.9999 28.1427 34.9999 25 34.9999H15C11.8573 34.9999 10.2859 34.9999 9.30962 34.0236C8.33331 33.0473 8.33331 31.4759 8.33331 28.3332V21.2659Z" stroke="black" stroke-width="2"/>
<path d="M24.1666 35V26C24.1666 25.4477 23.7189 25 23.1666 25H16.8333C16.281 25 15.8333 25.4477 15.8333 26V35" stroke="black" stroke-width="2" stroke-linecap="round" stroke-linejoin="round"/>
</svg>
