<svg width="35" height="35" viewBox="0 0 35 35" fill="none" xmlns="http://www.w3.org/2000/svg">
<circle cx="17.5" cy="11.6668" r="4.83333" stroke="black" stroke-opacity="0.7" stroke-width="2" stroke-linecap="round"/>
<path d="M21.8689 11.4375C22.3164 10.6623 23.0536 10.0967 23.9182 9.865C24.7828 9.63333 25.704 9.75461 26.4792 10.2022C27.2544 10.6497 27.82 11.3869 28.0517 12.2515C28.2834 13.1161 28.1621 14.0373 27.7145 14.8125C27.267 15.5877 26.5298 16.1533 25.6652 16.385C24.8006 16.6167 23.8794 16.4954 23.1042 16.0478C22.329 15.6003 21.7634 14.8631 21.5317 13.9985C21.3 13.1339 21.4213 12.2127 21.8689 11.4375L21.8689 11.4375Z" stroke="black" stroke-opacity="0.7" stroke-width="2"/>
<path d="M7.28548 11.4375C7.73303 10.6623 8.47019 10.0967 9.3348 9.865C10.1994 9.63333 11.1206 9.75461 11.8958 10.2022C12.671 10.6497 13.2366 11.3869 13.4683 12.2515C13.7 13.1161 13.5787 14.0373 13.1311 14.8125C12.6836 15.5877 11.9464 16.1533 11.0818 16.385C10.2172 16.6167 9.296 16.4954 8.52081 16.0478C7.74563 15.6003 7.17998 14.8631 6.94831 13.9985C6.71664 13.1339 6.83792 12.2127 7.28548 11.4375L7.28548 11.4375Z" stroke="black" stroke-opacity="0.7" stroke-width="2"/>
<path d="M24.619 26.2498L23.6387 26.4473L23.8003 27.2498H24.619V26.2498ZM30.3771 25.1463L31.3366 24.8645L31.3366 24.8645L30.3771 25.1463ZM21.5554 21.4527L20.9505 20.6564L19.7939 21.5348L21.0272 22.3019L21.5554 21.4527ZM29.4922 25.2498H24.619V27.2498H29.4922V25.2498ZM29.4176 25.428C29.4135 25.414 29.4099 25.3861 29.4172 25.3522C29.424 25.3203 29.4377 25.296 29.4507 25.2801C29.4763 25.2489 29.498 25.2498 29.4922 25.2498V27.2498C30.6602 27.2498 31.7216 26.1757 31.3366 24.8645L29.4176 25.428ZM24.7917 21.4165C26.3172 21.4165 27.329 22.0301 28.0363 22.8161C28.77 23.6316 29.1906 24.655 29.4176 25.428L31.3366 24.8645C31.067 23.9465 30.5368 22.605 29.523 21.4783C28.4827 20.3223 26.9501 19.4165 24.7917 19.4165V21.4165ZM22.1602 22.249C22.7994 21.7636 23.6428 21.4165 24.7917 21.4165V19.4165C23.199 19.4165 21.932 19.9109 20.9505 20.6564L22.1602 22.249ZM21.0272 22.3019C22.7006 23.3426 23.3746 25.136 23.6387 26.4473L25.5993 26.0524C25.2915 24.5239 24.4462 22.073 22.0835 20.6035L21.0272 22.3019Z" fill="black" fill-opacity="0.7"/>
<path d="M13.4446 21.4527L13.9727 22.3018L15.206 21.5348L14.0495 20.6563L13.4446 21.4527ZM4.62289 25.1462L5.58237 25.428L5.58237 25.428L4.62289 25.1462ZM10.3809 26.2498V27.2498H11.1996L11.3612 26.4473L10.3809 26.2498ZM10.2083 21.4165C11.3572 21.4165 12.2006 21.7636 12.8398 22.249L14.0495 20.6563C13.068 19.9109 11.801 19.4165 10.2083 19.4165V21.4165ZM5.58237 25.428C5.8094 24.655 6.22997 23.6316 6.96372 22.8161C7.67105 22.0301 8.68279 21.4165 10.2083 21.4165V19.4165C8.04995 19.4165 6.51727 20.3223 5.47702 21.4783C4.46318 22.605 3.933 23.9465 3.66341 24.8645L5.58237 25.428ZM5.50776 25.2498C5.50195 25.2498 5.52367 25.2489 5.54923 25.2801C5.56228 25.296 5.57593 25.3203 5.58279 25.3523C5.59006 25.3861 5.58649 25.414 5.58237 25.428L3.66341 24.8645C3.27836 26.1757 4.33977 27.2498 5.50776 27.2498V25.2498ZM10.3809 25.2498H5.50776V27.2498H10.3809V25.2498ZM11.3612 26.4473C11.6253 25.136 12.2993 23.3426 13.9727 22.3018L12.9165 20.6035C10.5538 22.073 9.70843 24.5239 9.4006 26.0524L11.3612 26.4473Z" fill="black" fill-opacity="0.7"/>
<path d="M17.5 20.4165C23.1028 20.4165 24.4005 24.7216 24.701 26.7159C24.7834 27.262 24.3439 27.7082 23.7916 27.7082H11.2083C10.656 27.7082 10.2166 27.262 10.2989 26.7159C10.5995 24.7216 11.8972 20.4165 17.5 20.4165Z" stroke="black" stroke-opacity="0.7" stroke-width="2" stroke-linecap="round"/>
</svg>
