<svg width="35" height="35" viewBox="0 0 35 35" fill="none" xmlns="http://www.w3.org/2000/svg">
<path d="M11.6667 27.6038C13.4402 28.6278 15.4521 29.1668 17.5 29.1668C19.5479 29.1668 21.5598 28.6278 23.3334 27.6038C25.1069 26.5798 26.5797 25.1071 27.6037 23.3335C28.6276 21.5599 29.1667 19.5481 29.1667 17.5002C29.1667 15.4522 28.6276 13.4404 27.6037 11.6668C26.5797 9.89327 25.1069 8.4205 23.3334 7.39653C21.5598 6.37257 19.5479 5.8335 17.5 5.8335C15.4521 5.8335 13.4402 6.37257 11.6667 7.39653" stroke="#33363F" stroke-width="2"/>
<path d="M2.91669 17.5002L2.13582 16.8755L1.63606 17.5002L2.13582 18.1249L2.91669 17.5002ZM16.0417 18.5002C16.594 18.5002 17.0417 18.0524 17.0417 17.5002C17.0417 16.9479 16.594 16.5002 16.0417 16.5002V18.5002ZM7.96915 9.5838L2.13582 16.8755L3.69756 18.1249L9.53089 10.8332L7.96915 9.5838ZM2.13582 18.1249L7.96915 25.4165L9.53089 24.1671L3.69756 16.8755L2.13582 18.1249ZM2.91669 18.5002H16.0417V16.5002H2.91669V18.5002Z" fill="#33363F"/>
</svg>
